<?xml version="1.0" encoding="UTF-8"?>
<svg width="963" height="1038" xmlns="http://www.w3.org/2000/svg" xmlns:svg="http://www.w3.org/2000/svg">

 <g>
  <title>Layer 1</title>
  <path id="svg_3" fill="#FEFEFE" fill-rule="evenodd" stroke="#FEFEFE" stroke-width="0.5px" d="m383,794.5l0.5,2.5l0,2.5l0,2.5l-0.5,-1l-0.5,-1l-0.299988,-0.200012l-0.200012,-0.299988l-0.200012,-0.299988l-0.299988,-0.200012l-0.299988,-0.200012l-0.200012,-0.299988l-0.200012,-0.299988l-0.299988,-0.200012l-0.5,-1l-0.5,-1l-0.5,-1l-0.5,-1l-0.5,-1.5q-0.5,-1.5 -7,-14l-6.5,-12.5l-0.299988,-0.200012l-0.200012,-0.299988l0,-0.299988l0,-0.200012l-0.200012,-0.5q-0.299988,-0.5 -0.599976,-0.5l-0.200012,0l-0.200012,-1q-0.299988,-1 -23.299988,-46q-23,-45 -25.700012,-50.799988q-2.799988,-5.700012 -24.799988,-48l-22,-42.200012l-0.200012,-1l-0.299988,-1l-0.299988,-0.200012l-0.200012,-0.299988l-0.200012,-0.299988l-0.299988,-0.200012l-0.299988,-0.200012l-0.200012,-0.299988l-0.200012,-0.299988l-0.299988,-0.200012l-0.5,-1q-0.5,-1 -12,-24.5q-11.5,-23.5 -4.199997,-30.299988q7.199997,-6.700012 10.699997,-10.400024q3.5,-3.799988 4.5,-4q1,-0.299988 5,-4.299988l4,-4l1,-0.299988l1,-0.200012l-0.200012,-2l-0.299988,-2l-0.299988,-2.5l-0.200012,-2.5l-1,0.200012l-1,0.299988l-1,0.5l-1,0.5l-1,0.5l-1,0.5l-2,0.5q-2,0.5 -19.5,8.5l-17.5,8l-1,0.5l-1,0.5l-1,0l-1,0l-0.199997,-0.299988l-0.300003,-0.200012l-0.5,-1l-0.5,-1l-0.300003,-0.200012l-0.199997,-0.299988l-0.199997,-0.299988l-0.300003,-0.200012l-0.5,-1l-0.5,-1l-0.300003,-1l-0.199997,-1l2.800003,-0.5q2.699997,-0.5 8,-19.299988q5.199997,-18.700012 10.699997,-26.700012q5.5,-8 23.700012,-28.299988q18.299988,-20.200012 22.299988,-25.200012q4,-5 10,-15.5q6,-10.5 8.5,-17.5q2.5,-7 20.799988,-33.200012q18.200012,-26.299988 25.700012,-36.599976q7.5,-10.200012 8.700012,-9.700012q1.299988,0.5 8.299988,29q7,28.5 6,42.5q-1,14 0.700012,17.200012q1.799988,3.299988 6.299988,5.299988q4.5,2 7,2.299988q2.5,0.200012 -15.299988,35.700012q-17.700012,35.5 -20.200012,66q-2.5,30.5 -1.5,65q1,34.5 4,67.5q3,33 10.5,83q7.5,50 11.5,72q4,22 4.5,24.5z"/>
  <path id="svg_14" fill="#FDFDFD" fill-rule="evenodd" stroke="#FDFDFD" stroke-width="0.5px" d="m504.5,51l1.5,0.5l1.5,0.299999l1.5,0.200001l-0.200012,2l-0.299988,2l-0.5,2.5l-0.5,2.5l-0.299988,1l-0.200012,1l-1,-0.200001l-1,-0.299999l-1.5,-0.5q-1.5,-0.5 -3,-1l-1.5,-0.5l-1.5,-0.5l-1.5,-0.5l-1.5,0l-1.5,0l0.200012,0.299999l0.299988,0.200001l0.299988,0.200001l0.200012,0.299999l1,0.5l1,0.5l1.5,0.5l1.5,0.5l2,1q2,1 3.5,1.300003l1.5,0.199997l-0.200012,2l-0.299988,2l-0.5,2l-0.5,2l-0.299988,1l-0.200012,1l-1.5,-0.199997l-1.5,-0.300003l-4.5,-0.5q-4.5,-0.5 -44.5,-0.5q-40,0 -49,2l-9,2l-1,0.300003l-1,0.199997l0,-4.5l0,-4.5l0.200012,-3l0.299988,-3l0.299988,-1.5q0.200012,-1.5 6,-3.5q5.700012,-2 6,-2.200001l0.200012,-0.299999l0.200012,-0.299999l0.299988,-0.200001l0.299988,0.200001l0.200012,0.299999l0.200012,0.299999l0.299988,0.200001l0.299988,-0.200001l0.200012,-0.299999l1.5,-0.5l1.5,-0.5l1.5,-0.5l1.5,-0.5l-2.5,-0.5l-2.5,-0.5l-1,0l-1,0l-2,0.5q-2,0.5 -3,1l-1,0.5l-2,0.5l-2,0.5l-1.5,0.299999l-1.5,0.200001l0,-2l0,-2l1,-0.200001l1,-0.299999l1,-0.5l1,-0.5l10.5,-3.5q10.5,-3.5 20,-5q9.5,-1.5 24.5,-1q15,0.5 28,3.5q13,3 18,4.5q5,1.5 6.5,2zm-89,0.799999l1.5,-0.799999l0,1l0,1l-1.5,-0.200001q-1.5,-0.299999 0,-1z"/>
  <path id="svg_15" fill="#FBFBFB" fill-rule="evenodd" stroke="#FBFBFB" stroke-width="0.5px" d="m524.5,550.5l5,-82.5l0,47q0,47 -5.5,107.5q-5.5,60.5 -11.5,99q-6,38.5 -14,70.5q-8,32 -16.700012,56q-8.799988,24 -25.799988,26.200012q-17,2.299988 -21,2.799988l-4,0.5l-4.5,0l-4.5,0l1,-0.5l1,-0.5l1,-0.5l1,-0.5l1,-0.5l1,-0.5l0.200012,-0.299988l0.299988,-0.200012l0.299988,-0.200012l0.200012,-0.299988l0.200012,-0.299988l0.299988,-0.200012l0.299988,-0.200012q0.200012,-0.299988 1.700012,-0.799988q1.5,-0.5 10.299988,-7.799988q8.700012,-7.200012 17.700012,-18.700012q9,-11.5 16,-25.5q7,-14 15,-37q8,-23 14,-52q6,-29 10.5,-63.5q4.5,-34.5 9.5,-117z"/>
  <path id="svg_16" fill="#FCFCFC" fill-rule="evenodd" stroke="#FCFCFC" stroke-width="0.5px" d="m548,213l0.5,-1l0,1.5q0,1.5 -2,10q-2,8.5 -9,30.5q-7,22 -14.5,38q-7.5,16 -14.5,26.5q-7,10.5 -10.299988,13.5q-3.200012,3 -3.400024,4q-0.299988,1 -4.799988,6q-4.5,5 -14.200012,12.200012q-9.799988,7.299988 -19.799988,12.799988q-10,5.5 -15,6q-5,0.5 -24,-4.200012q-19,-4.799988 -20.799988,-14.799988l-1.700012,-10l0,-4l0,-4l0.299988,0.200012l0.200012,0.299988l0.200012,0.299988l0.299988,0.200012l0.299988,0.200012l0.200012,0.299988l0.200012,0.299988l0.299988,0.200012l0.299988,0.200012l0.200012,0.299988l0.200012,0.299988l0.299988,0.200012l0.299988,0.200012l0.200012,0.299988l0.200012,0.299988l0.299988,0.200012l0.299988,0.200012l0.200012,0.299988l0.200012,0.299988l0.299988,0.200012l0.299988,0.200012l0.200012,0.299988l10,7q10,7 16,10q6,3 18,-2q12,-5 24.200012,-13.700012q12.299988,-8.799988 21.299988,-18.299988q9,-9.5 9.299988,-10.5q0.200012,-1 1.200012,-1q1,0 11.799988,-18q10.700012,-18 17.700012,-33q7,-15 12.5,-31.5q5.5,-16.5 6,-17.5z"/>
  <path id="svg_18" fill="#FAFAFA" fill-rule="evenodd" stroke="#FAFAFA" stroke-width="0.5px" d="m379.5,685.5l-3,-25.5l10,45q10,45 15.700012,62.200012q5.799988,17.299988 11.299988,27.299988q5.5,10 20,7.5q14.5,-2.5 19,-2.799988l4.5,-0.200012l-0.200012,1l-0.299988,1l-0.299988,0.200012l-0.200012,0.299988l-0.200012,0.299988l-0.299988,0.200012l-0.299988,0.200012l-0.200012,0.299988l-0.200012,0.299988l-0.299988,0.200012l-0.299988,0.200012l-0.200012,0.299988l-0.200012,0.299988l-0.299988,0.200012l-0.299988,1l-0.200012,1l-5.200012,4.5q-5.299988,4.5 -5.599976,5.5q-0.200012,1 -10.200012,6.799988q-10,5.700012 -11,6.200012l-1,0.5l-1.5,0.299988l-1.5,0.200012l-0.200012,-1q-0.299988,-1 -6.799988,-17q-6.5,-16 -13,-38q-6.5,-22 -10.5,-42.5q-4,-20.5 -7,-46z"/>
  <path id="svg_22" fill="#FAFAFA" fill-rule="evenodd" stroke="#FAFAFA" stroke-width="0.5px" d="m521.5,788l9,-37l-1.5,16.5q-1.5,16.5 -9,55q-7.5,38.5 -6.799988,43.700012q0.799988,5.299988 5,13.599976q4.299988,8.200012 4.799988,9.700012l0.5,1.5l0.5,1l0.5,1l0.5,1.5l0.5,1.5l0.299988,1l0.200012,1l-1,0l-1,0l-0.200012,-1l-0.299988,-1l-0.5,-1l-0.5,-1l-0.299988,-0.200012l-0.200012,-0.299988l-0.200012,-0.299988l-0.299988,-0.200012l-0.299988,-0.200012l-0.200012,-0.299988l-0.200012,-0.299988l-0.299988,-0.200012l-0.299988,-0.200012q-0.200012,-0.299988 -3,-2.599976q-2.700012,-2.200012 -13.400024,-5.400024l-10.799988,-3.299988l-1,-0.299988l-1,-0.200012l0.200012,-1l0.299988,-1l0.5,-1q0.5,-1 3,-6.5q2.5,-5.5 10,-25.5q7.5,-20 16.5,-57z"/>
  <g id="svg_26">
   <path id="svg_2" fill="#000000" fill-rule="evenodd" stroke="#000000" stroke-width="0.5px" d="m486.629639,131.17038l-8,0.199997l-0.200012,1l-0.299988,1l0,1.5l0,1.5l3,6q3,6 10.700012,12.800003q7.799988,6.699997 40.299988,14.699997q32.5,8 43.299988,15.699997q10.700012,7.800003 11,8.800003q0.200012,1 10.700012,6.199997q10.5,5.300003 37,14.800003q26.5,9.5 47,-2q20.5,-11.5 35.700012,-21.199997q15.299988,-9.800003 21.799988,-16.300003q6.5,-6.5 15.799988,-16.699997q9.200012,-10.300003 22.200012,-14.800003q13,-4.5 17.5,-4q4.5,0.5 8.5,4q4,3.5 12,10q8,6.5 13.799988,11.199997q5.700012,4.800003 6,7.600006q0.200012,2.699997 -0.799988,3.199997q-1,0.5 -2,1l-1,0.5l1.5,0.5l1.5,0.5l39,8q39,8 41,8.5l2,0.5l0.200012,0.300003l0.299988,0.199997l0.299988,0.199997l0.200012,0.300003l0.200012,0.300003l0.299988,0.199997l0.5,1.5l0.5,1.5l0.299988,2l0.200012,2l-5,0l-5,0l7.799988,28.5q7.700012,28.499985 8.200012,29.999985l0.5,1.5l0.5,1.5l0.5,1.5l0.299988,1l0.200012,1l-1,-0.200012l-1,-0.299988l-1,-0.5l-1,-0.5l-0.200012,-0.299988l-0.299988,-0.200012l-0.299988,0.200012l-0.200012,0.299988l-0.200012,0.299988l-0.299988,0.200012l-0.5,1l-0.5,1l-0.299988,0l-0.200012,0l-0.200012,0l-0.299988,0l-0.5,-1.5l-0.5,-1.5l-0.5,-1.5q-0.5,-1.5 -8.5,-28.999985l-8,-27.5l-0.5,-1.5l-0.5,-1.5l-0.299988,-0.199997l-0.200012,-0.300003l-0.200012,-0.300003l-0.299988,-0.199997l-0.299988,-0.199997l-0.200012,-0.300003l-1,0l-1,0l-0.200012,0.300003l-0.299988,0.199997l-0.5,1l-0.5,1l-0.5,2l-0.5,2l-0.5,1q-0.5,1 -5.5,15.5q-5,14.5 -8.700012,25.5l-3.799988,10.999985l-0.5,0.200012q-0.5,0.299988 -1,0.799988l-0.5,0.5l0,0.299988l0,0.200012l0,0.5l0,0.5l-0.5,0.200012l-0.5,0.299988l-0.200012,0.299988l-0.299988,0.200012l-0.299988,-0.200012l-0.200012,-0.299988l-0.200012,-0.299988l-0.299988,-0.200012l-0.299988,1l-0.200012,1l-1,0l-1,0l-0.200012,1l-0.299988,1l-0.299988,0l-0.200012,0l0,-0.5l0,-0.5l0.200012,-1.5l0.299988,-1.5l0.299988,0l0.200012,0l0.200012,-1.5l0.299988,-1.5l8.5,-26.999985q8.5,-27 9,-28.5l0.5,-1.5l0.299988,-1.5l0.200012,-1.5l-66,0l-66,0l0.200012,1l0.299988,1l8.5,30q8.5,29.999985 9,31.999985l0.5,2l0.299988,2l0.200012,2l-0.5,-0.200012l-0.5,-0.299988l-1,0l-1,0l-0.200012,0.299988l-0.299988,0.200012l-0.299988,-0.200012l-0.200012,-0.299988l-0.200012,-0.299988l-0.299988,-0.200012l-0.299988,0.200012l-0.200012,0.299988l-1,0.299988l-1,0.200012l-0.200012,-0.5l-0.299988,-0.5l-0.5,-1.5l-0.5,-1.5l-0.5,-2q-0.5,-2 -8,-27.499985l-7.5,-25.5l-0.5,-1.5l-0.5,-1.5l-0.299988,-0.199997l-0.200012,-0.300003l-0.200012,-0.300003l-0.299988,-0.199997l-0.299988,0.199997l-0.200012,0.300003l-0.200012,0.300003l-0.299988,0.199997l-0.299988,0.199997l-0.200012,0.300003l-0.200012,0.300003l-0.299988,0.199997l-0.299988,0.199997l-0.200012,0.300003l-0.200012,0.300003l-0.299988,0.199997l-0.299988,0.199997l-0.200012,0.300003l-0.200012,0.300003l-0.299988,0.199997l-0.299988,0.199997l-0.200012,0.300003l-0.200012,0.300003l-0.299988,0.199997l-0.299988,0.199997l-0.200012,0.300003l-0.200012,0.300003q-0.299988,0.199997 -2,1.399994q-1.799988,1.300003 -13.599976,36l-11.700012,34.799988l-0.5,1.5l-0.5,1.5l-0.299988,0.200012l-0.200012,0.299988l0,0.299988l0,0.200012l-0.200012,0l-0.299988,0l-0.5,-1.5l-0.5,-1.5l-0.299988,0.200012l-0.200012,0.299988l-1,0.299988l-1,0.200012l0,-1l0,-1l-1,0l-1,0l0.200012,-1l0.299988,-1l0.5,-1.5q0.5,-1.5 7,-22.5l6.5,-20.999985l0.5,-1l0.5,-1l0.5,-2l0.5,-2l0.299988,-0.199997l0.200012,-0.300003l-1.5,0l-1.5,0l-0.200012,0.300003l-0.299988,0.199997l-0.299988,0.199997l-0.200012,0.300003l-0.200012,0.300003l-0.299988,0.199997l-0.299988,0.199997l-0.200012,0.300003l-0.200012,0.300003l-0.299988,0.199997l-0.299988,0.199997l-0.200012,0.300003l-0.200012,0.300003l-0.299988,0.199997l-0.299988,0.199997l-0.200012,0.300003l-0.200012,0.300003l-0.299988,0.199997l-0.299988,0.199997q-0.200012,0.300003 -3.700012,2.600006q-3.5,2.199997 -3.700012,3.199997q-0.299988,1 -10.799988,8q-10.5,6.999985 -22.799988,13.199997q-12.200012,6.299988 -20.200012,4.799988q-8,-1.5 -52.5,-14l-44.5,-12.499985l-1.5,-0.5l-1.5,-0.5l-0.200012,-0.300003l-0.299988,-0.199997l0,2l0,2l0.5,1.5q0.5,1.5 1,6.999985q0.5,5.5 -3.5,21q-4,15.5 -4.5,41q-0.5,25.5 -3.5,39q-3,13.5 -4.700012,16.700012q-1.799988,3.299988 -6.299988,4.599976q-4.5,1.200012 -4.299988,3.700012q0.299988,2.5 3.599976,9.700012q3.200012,7.299988 7.400024,15q4.299988,7.799988 8.799988,21.299988q4.5,13.5 8,37q3.5,23.5 4,56q0.5,32.5 -2.5,70q-3,37.5 -18,142q-15,104.5 -11.5,127q3.5,22.5 4,36q0.5,13.5 -0.5,16q-1,2.5 0.5,5q1.5,2.5 2.5,7.5q1,5 -3.299988,8.799988q-4.200012,3.700012 -17.200012,3.700012q-13,0 -19.5,-2.5q-6.5,-2.5 -28.5,-2.5q-22,0 -32.200012,4.299988q-10.299988,4.200012 -23,8.400024q-12.799988,4.299988 -17.599976,3.599976q-4.700012,-0.799988 -6.200012,-3.799988q-1.5,-3 -6.5,-6.5q-5,-3.5 -5.5,-8q-0.5,-4.5 1.200012,-6q1.799988,-1.5 3,-9.5q1.299988,-8 1.299988,-26q0,-18 -43.5,-98.5q-43.5,-80.5 -65,-120.5q-21.500015,-40 -45.000015,-83l-23.5,-43l-18.699997,8.799988q-18.800003,8.700012 -20.300003,9.200012l-1.5,0.5l-0.199997,0.299988l-0.300003,0.200012l-0.300003,0.200012l-0.199997,0.299988l-1,0.5l-1,0.5l-1,0l-1,0l-0.199997,-0.299988l-0.300003,-0.200012l-0.300003,-0.200012l-0.199997,-0.299988l-0.199997,-0.299988l-0.300003,-0.200012l0,-1.5l0,-1.5l0.300003,-0.200012l0.199997,-0.299988l0.199997,-0.299988l0.300003,-0.200012l0.5,-1l0.5,-1l0.300003,-0.200012l0.199997,-0.299988l0.199997,-0.299988l0.300003,-0.200012l0.300003,-0.200012l0.199997,-0.299988l0.199997,-0.299988q0.300003,-0.200012 16.800003,-17.200012l16.5,-17l0.5,-1l0.5,-1l0.300003,-0.200012l0.199997,-0.299988l-0.199997,-0.299988l-0.300003,-0.200012l-0.300003,-0.200012l-0.199997,-0.299988l-0.199997,-0.299988l-0.300003,-0.200012l-0.5,-2l-0.5,-2l-0.5,-1l-0.5,-1l-0.300003,-0.200012l-0.199997,-0.299988l-0.199997,-0.299988l-0.300003,-0.200012l-0.300003,-0.200012l-0.199997,-0.299988l-0.199997,-0.299988l-0.300003,-0.200012l-0.300003,0.200012q-0.199997,0.299988 -2.199997,1.299988q-2,1 -8.5,0q-6.5,-1 -10,-4q-3.5,-3 -5.699997,-7.299988q-2.300003,-4.200012 -2.300003,-8.200012q0,-4 0,-14q0,-10 1.300003,-10.5q1.199997,-0.5 2,-3.5q0.699997,-3 -4.800003,-14q-5.5,-11 -12.199997,-13.5q-6.800003,-2.5 -5.600006,-9.5q1.300003,-7 4.300003,-11.5q3,-4.5 7.699997,-6.299988q4.800003,-1.700012 13.300003,-1q8.5,0.799988 8.699997,8.299988q0.300003,7.5 5.300003,17.5q5,10 6.699997,10.200012q1.800003,0.299988 8.800003,-3.200012q7,-3.5 11.199997,-6.799988q4.300003,-3.200012 12.800003,-21.200012q8.5,-18 16.800003,-30.799988q8.199997,-12.700012 18,-27q9.700012,-14.200012 16.400024,-24q6.799988,-9.700012 11.599976,-20q4.700012,-10.200012 18.700012,-38.200012q14,-27.999985 29,-54.499985q15,-26.5 17.299988,-28.5q2.200012,-2 3,-4q0.700012,-2 9,-6.800003q8.200012,-4.699997 19.200012,-6.699997q11,-2 16,-3.5q5,-1.5 12.5,-7.5q7.5,-6 10.700012,-14.300003l3.299988,-8.199997l0.299988,-2l0.200012,-2l-2,-0.199997q-2,-0.300003 -9.5,-2.300003q-7.5,-2 -10,-4.700005q-2.5,-2.800003 -5.700012,-4.300003q-3.299988,-1.5 -5.799988,-7q-2.5,-5.5 -3,-16.5q-0.5,-11 0.799988,-15l1.200012,-4l1,-0.199997l1,-0.300003l9,-2q9,-2 49,-2q40,0 44.5,0.5l4.5,0.5l1.5,0.300003l1.5,0.199997l0.200012,-1l0.299988,-1l0.5,-2l0.5,-2l0.299988,-2l0.200012,-2l-1.5,-0.199997q-1.5,-0.300003 -3.5,-1.300003l-2,-1l-1.5,-0.5l-1.5,-0.5l-1,-0.5l-1,-0.5l-0.200012,-0.299999l-0.299988,-0.200001l-0.299988,-0.200001l-0.200012,-0.299999l1.5,0l1.5,0l1.5,0.5l1.5,0.5l1.5,0.5q1.5,0.5 3,1l1.5,0.5l1,0.300003l1,0.199997l0.200012,-1l0.299988,-1l0.5,-2.5l0.5,-2.5l0.299988,-2l0.200012,-2l-1.5,-0.200001l-1.5,-0.299999l-1.5,-0.5q-1.5,-0.5 -6.5,-2q-5,-1.5 -18,-4.5q-13,-3 -28,-3.5q-15,-0.5 -24.5,1q-9.5,1.5 -20,5l-10.5,3.5l-1,0.5l-1,0.5l-1,0.299999l-1,0.200001l0,2l0,2l1.5,-0.200001l1.5,-0.299999l2,-0.5l2,-0.5l1,-0.5q1,-0.5 3,-1l2,-0.5l1,-0.5q1,-0.5 5.5,-0.799999l4.5,-0.200001l0,1l0,1l-2,0.200001l-2,0.299999l-1.5,0.5l-1.5,0.5l-1.5,0.5l-1.5,0.5l-0.200012,0.299999l-0.299988,0.200001l-0.299988,-0.200001l-0.200012,-0.299999l-0.200012,-0.299999l-0.299988,-0.200001l-0.299988,0.200001l-0.200012,0.299999l-0.200012,0.299999q-0.299988,0.200001 -6,2.200001q-5.799988,2 -6,3.5l-0.299988,1.5l-0.299988,3l-0.200012,3l-0.200012,0l-0.299988,0l-0.700012,-12.799999q-0.799988,-12.700001 6.200012,-23.200001q7,-10.499998 18,-19.499998q11,-9 14,-10.5q3,-1.5 9,-1q6,0.5 11,2q5,1.5 10,-0.5q5,-2 13.5,-1.5q8.5,0.5 14.299988,3.8q5.700012,3.200001 13.200012,11.700001q7.5,8.5 11,13.499998q3.5,5 4.5,11.5q1,6.5 -1.5,18q-2.5,11.5 0.5,15.5q3,4 1.5,17.5q-1.5,13.5 -5.5,22q-4,8.5 -8.700012,10.700005q-4.799988,2.300003 -12.799988,2.600006zm-78.799988,-76.000011q-0.200012,-0.299999 0,-0.599998q0.299988,-0.200001 0.299988,0.299999q0,0.5 -0.299988,0.299999zm137.799988,160.200008l0.5,-1l0,1.5q0,1.5 -2,10q-2,8.5 -9,30.499985q-7,22 -14.5,38q-7.5,16 -14.5,26.5q-7,10.5 -10.299988,13.5q-3.200012,3 -3.400024,4q-0.299988,1 -4.799988,6q-4.5,5 -14.200012,12.200012q-9.799988,7.299988 -19.799988,12.799988q-10,5.5 -15,6q-5,0.5 -24,-4.200012q-19,-4.799988 -20.799988,-14.799988l-1.700012,-10l0,-4l0,-4l0.299988,0.200012l0.200012,0.299988l0.200012,0.299988l0.299988,0.200012l0.299988,0.200012l0.200012,0.299988l0.200012,0.299988l0.299988,0.200012l0.299988,0.200012l0.200012,0.299988l0.200012,0.299988l0.299988,0.200012l0.299988,0.200012l0.200012,0.299988l0.200012,0.299988l0.299988,0.200012l0.299988,0.200012l0.200012,0.299988l0.200012,0.299988l0.299988,0.200012l0.299988,0.200012l0.200012,0.299988l10,7q10,7 16,10q6,3 18,-2q12,-5 24.200012,-13.700012q12.299988,-8.799988 21.299988,-18.299988q9,-9.5 9.299988,-10.5q0.200012,-1 1.200012,-1q1,0 11.799988,-18q10.700012,-18 17.700012,-33q7,-14.999985 12.5,-31.499985q5.5,-16.5 6,-17.5zm-165,581.499985l0.5,2.5l0,2.5l0,2.5l-0.5,-1l-0.5,-1l-0.299988,-0.200012l-0.200012,-0.299988l-0.200012,-0.299988l-0.299988,-0.200012l-0.299988,-0.200012l-0.200012,-0.299988l-0.200012,-0.299988l-0.299988,-0.200012l-0.5,-1l-0.5,-1l-0.5,-1l-0.5,-1l-0.5,-1.5q-0.5,-1.5 -7,-14l-6.5,-12.5l-0.299988,-0.200012l-0.200012,-0.299988l0,-0.299988l0,-0.200012l-0.5,-0.200012l-0.5,-0.299988l0,-0.299988l0,-0.200012l-0.200012,0l-0.299988,0l-0.299988,0.200012l-0.200012,0.299988l-0.200012,0.299988l-0.299988,0.200012l-0.5,1l-0.5,1l-0.5,1l-0.5,1l-0.299988,0.200012l-0.200012,0.299988l-0.200012,0.299988l-0.299988,0.200012l-0.299988,0.200012l-0.200012,0.299988l-0.200012,0.299988l-0.299988,0.200012l-0.299988,0.200012l-0.200012,0.299988l-1,0.5l-1,0.5l0.200012,0.299988l0.299988,0.200012l0.299988,0.200012l0.200012,0.299988l-0.200012,0.299988l-0.299988,0.200012l-0.5,1l-0.5,1l-0.299988,0.200012l-0.200012,0.299988l-0.200012,0.299988l-0.299988,0.200012l-0.299988,0.200012l-0.200012,0.299988l-0.5,0.299988l-0.5,0.200012l16.799988,36q16.700012,36 17.200012,37l0.5,1l0.5,2l0.5,2l0,2l0,2l-0.5,-1l-0.5,-1l-0.299988,-0.200012l-0.200012,-0.299988l-0.200012,-0.299988l-0.299988,-0.200012l-0.5,-1.5l-0.5,-1.5l-0.5,-1l-0.5,-1l-0.5,-1q-0.5,-1 -57.5,-115.5q-57,-114.5 -77.000015,-155l-20,-40.5l-0.5,-1l-0.5,-1l0,-1l0,-1l0.300003,-0.200012l0.199997,-0.299988l0.199997,-0.299988l0.300003,-0.200012l0.300003,-0.200012l0.199997,-0.299988l1,-0.5l1,-0.5l0.199997,-0.299988l0.300003,-0.200012l0.300003,-0.200012l0.199997,-0.299988l0.199997,-0.299988l0.300003,-0.200012l0.300003,-0.200012l0.199997,-0.299988l0.199997,-0.299988l0.300003,-0.200012l0.5,1l0.5,1l0.5,1l0.5,1l0.5,1l0.5,1l9,18.5q9,18.5 9.300003,19.5l0.199997,1l1.5,0l1.5,0l0.200012,-1l0.300003,-1l0.299988,0.200012l0.200012,0.299988l1,0.5l1,0.5l1,0l1,0l1,0l1,0l1,0.299988l1,0.200012l-0.200012,-1l-0.299988,-1l-0.299988,-0.200012l-0.200012,-0.299988l-0.200012,-0.299988l-0.299988,-0.200012l-0.299988,-0.200012l-0.200012,-0.299988l-0.200012,-0.299988l-0.299988,-0.200012l-0.5,-1q-0.5,-1 -12.000015,-24.5q-11.5,-23.5 -4.199997,-30.299988q7.199997,-6.700012 10.700012,-10.400024q3.5,-3.799988 4.5,-4q1,-0.299988 5,-4.299988l4,-4l1,-0.299988l1,-0.200012l-0.200012,-2l-0.299988,-2l-0.299988,-2.5l-0.200012,-2.5l-1,0.200012l-1,0.299988l-1,0.5l-1,0.5l-1,0.5l-1,0.5l-2,0.5q-2,0.5 -19.500015,8.5l-17.5,8l-1,0.5l-1,0.5l-1,0l-1,0l-0.199997,-0.299988l-0.300003,-0.200012l-0.5,-1l-0.5,-1l-0.300003,-0.200012l-0.199997,-0.299988l-0.199997,-0.299988l-0.300003,-0.200012l-0.5,-1l-0.5,-1l-0.300003,-1l-0.199997,-1l2.800003,-0.5q2.699997,-0.5 8,-19.299988q5.199997,-18.700012 10.699997,-26.700012q5.5,-8 23.700027,-28.299988q18.299988,-20.200012 22.299988,-25.200012q4,-5 10,-15.5q6,-10.5 8.5,-17.5q2.5,-7 20.799988,-33.200012q18.200012,-26.299988 25.700012,-36.599976q7.5,-10.200012 8.700012,-9.700012q1.299988,0.5 8.299988,29q7,28.5 6,42.5q-1,14 0.700012,17.200012q1.799988,3.299988 6.299988,5.299988q4.5,2 7,2.299988q2.5,0.200012 -15.299988,35.700012q-17.700012,35.5 -20.200012,66q-2.5,30.5 -1.5,65q1,34.5 4,67.5q3,33 10.5,83q7.5,50 11.5,72q4,22 4.5,24.5zm141.5,-244l5,-82.5l0,47q0,47 -5.5,107.5q-5.5,60.5 -11.5,99q-6,38.5 -14,70.5q-8,32 -16.700012,56q-8.799988,24 -25.799988,26.200012q-17,2.299988 -21,2.799988l-4,0.5l-4.5,0l-4.5,0l1,-0.5l1,-0.5l1,-0.5l1,-0.5l1,-0.5l1,-0.5l0.200012,-0.299988l0.299988,-0.200012l0.299988,-0.200012l0.200012,-0.299988l0.200012,-0.299988l0.299988,-0.200012l0.299988,-0.200012q0.200012,-0.299988 1.700012,-0.799988q1.5,-0.5 10.299988,-7.799988q8.700012,-7.200012 17.700012,-18.700012q9,-11.5 16,-25.5q7,-14 15,-37q8,-23 14,-52q6,-29 10.5,-63.5q4.5,-34.5 9.5,-117zm-145,135l-3,-25.5l10,45q10,45 15.700012,62.200012q5.799988,17.299988 11.299988,27.299988q5.5,10 20,7.5q14.5,-2.5 19,-2.799988l4.5,-0.200012l-0.200012,1l-0.299988,1l-0.299988,0.200012l-0.200012,0.299988l-0.200012,0.299988l-0.299988,0.200012l-0.299988,0.200012l-0.200012,0.299988l-0.200012,0.299988l-0.299988,0.200012l-0.299988,0.200012l-0.200012,0.299988l-0.200012,0.299988l-0.299988,0.200012l-0.299988,1l-0.200012,1l-5.200012,4.5q-5.299988,4.5 -5.599976,5.5q-0.200012,1 -10.200012,6.799988q-10,5.700012 -11,6.200012l-1,0.5l-1.5,0.299988l-1.5,0.200012l-0.200012,-1q-0.299988,-1 -6.799988,-17q-6.5,-16 -13,-38q-6.5,-22 -10.5,-42.5q-4,-20.5 -7,-46zm142,102.5l9,-37l-1.5,16.5q-1.5,16.5 -9,55q-7.5,38.5 -6.799988,43.700012q0.799988,5.299988 5,13.599976q4.299988,8.200012 4.799988,9.700012l0.5,1.5l0.5,1l0.5,1l0.5,1.5l0.5,1.5l0.299988,1l0.200012,1l-1,0l-1,0l-0.200012,-1l-0.299988,-1l-0.5,-1l-0.5,-1l-0.299988,-0.200012l-0.200012,-0.299988l-0.200012,-0.299988l-0.299988,-0.200012l-0.299988,-0.200012l-0.200012,-0.299988l-0.200012,-0.299988l-0.299988,-0.200012l-0.299988,-0.200012q-0.200012,-0.299988 -3,-2.599976q-2.700012,-2.200012 -13.400024,-5.400024l-10.799988,-3.299988l-1,-0.299988l-1,-0.200012l0.200012,-1l0.299988,-1l0.5,-1q0.5,-1 3,-6.5q2.5,-5.5 10,-25.5q7.5,-20 16.5,-57z"/>
   <path id="svg_4" fill="#FEFEFE" fill-rule="evenodd" stroke="#FEFEFE" stroke-width="0.5px" d="m747.429626,212.17038l0.200012,-0.300003l0.200012,-0.300003l0.299988,-0.199997l0.299988,0.199997l0.200012,0.300003l0.200012,0.300003l0.299988,0.199997l0.5,1.5l0.5,1.5l7.5,25.5q7.5,25.499985 8,27.499985l0.5,2l0.5,1.5l0.5,1.5l0.299988,0.5l0.200012,0.5l8.799988,32.5q8.700012,32.5 9.200012,34.5l0.5,2l0.299988,1l0.200012,1l-45,0l-45,0l0.200012,-1l0.299988,-1l0.5,-1.5q0.5,-1.5 7.5,-23l7,-21.5l0.5,-1.5l0.5,-1.5l0.299988,-0.5l0.200012,-0.5l0,-0.200012l0,-0.299988l0.200012,-0.299988l0.299988,-0.200012l0.5,-1.5l0.5,-1.5l11.700012,-34.799988q11.799988,-34.699997 13.599976,-36q1.700012,-1.199997 2,-1.399994l0.200012,-0.300003l0.200012,-0.300003l0.299988,-0.199997l0.299988,-0.199997l0.200012,-0.300003l0.200012,-0.300003l0.299988,-0.199997l0.299988,-0.199997l0.200012,-0.300003l0.200012,-0.300003l0.299988,-0.199997l0.299988,-0.199997l0.200012,-0.300003l0.200012,-0.300003l0.299988,-0.199997l0.299988,-0.199997l0.200012,-0.300003l0.200012,-0.300003l0.299988,-0.199997l0.299988,-0.199997z"/>
   <path id="svg_5" fill="#FEFEFE" fill-rule="evenodd" stroke="#FEFEFE" stroke-width="0.5px" d="m896.429626,205.17038l0.200012,-0.300003l1,0l1,0l0.200012,0.300003l0.299988,0.199997l0.299988,0.199997l0.200012,0.300003l0.200012,0.300003l0.299988,0.199997l0.5,1.5l0.5,1.5l8,27.5q8,27.499985 8.5,28.999985l0.5,1.5l0.5,1.5l0.5,1.5l0.299988,0l0.200012,0l0.200012,2l0.299988,2l8.5,31.5q8.5,31.5 9,33l0.5,1.5l0.299988,1.5l0.200012,1.5l-43.5,0l-43.5,0l0.200012,-2l0.299988,-2l0.5,-1q0.5,-1 10.5,-32.5q10,-31.5 10.299988,-35l0.200012,-3.5l0,-0.5l0,-0.5l1,0q1,0 1,-1l0,-1l3.799988,-10.999985q3.700012,-11 8.700012,-25.5q5,-14.5 5.5,-15.5l0.5,-1l0.5,-2l0.5,-2l0.5,-1l0.5,-1l0.299988,-0.199997z"/>
   <path id="svg_8" fill="#000000" fill-rule="evenodd" stroke="#000000" stroke-width="0.5px" d="m768.629639,274.170349l1,-0.299988l0.200012,-0.299988l0.299988,-0.200012l0.299988,0.200012l0.200012,0.299988l0.200012,0.299988l0.299988,0.200012l0.299988,-0.200012l0.200012,-0.299988l1,0l1,0l0.5,0.299988l0.5,0.200012l10.5,35.5q10.5,35.5 14.5,35.5l4,0l-0.200012,3.5q-0.299988,3.5 -1.299988,6q-1,2.5 -5.5,7.5q-4.5,5 -10.200012,9.200012q-5.799988,4.299988 -15.799988,7.799988q-10,3.5 -23,4.5q-13,1 -25.5,-1.5q-12.5,-2.5 -20.5,-6.5q-8,-4 -13.799988,-10.299988q-5.700012,-6.200012 -7.400024,-13.200012l-1.799988,-7l5,0q5,0 12.799988,-23.5q7.700012,-23.5 8.200012,-25l0.5,-1.5l0.5,-1l0.5,-1l0.5,-1.5l0.5,-1.5l0.299988,-0.5l0.200012,-0.5l2,0.200012l2,0.299988l0.200012,0.299988l0.299988,0.200012l0.5,1.5l0.5,1.5l0.299988,0l0.200012,0l-0.200012,0.5l-0.299988,0.5l-0.5,1.5l-0.5,1.5l-7,21.5q-7,21.5 -7.5,23l-0.5,1.5l-0.299988,1l-0.200012,1l45,0l45,0l-0.200012,-1l-0.299988,-1l-0.5,-2q-0.5,-2 -9.200012,-34.5l-8.799988,-32.5l1,-0.200012z"/>
   <path id="svg_12" fill="#000000" fill-rule="evenodd" stroke="#000000" stroke-width="0.5px" d="m875.129639,264.570374l0.5,-0.200012l-11.200012,36.5q-11.299988,36.5 -11.799988,37.5l-0.5,1l-0.299988,2l-0.200012,2l43.5,0l43.5,0l-0.200012,-1.5l-0.299988,-1.5l-0.5,-1.5q-0.5,-1.5 -9,-33l-8.5,-31.5l-0.299988,-2l-0.200012,-2l0.200012,0l0.299988,0l0.5,-1l0.5,-1l0.299988,-0.200012l0.200012,-0.299988l0.200012,-0.299988l0.299988,-0.200012l0.299988,0.200012l0.200012,0.299988l1,0.5l1,0.5l1,0.299988l1,0.200012l0.200012,2l0.299988,2l10.299988,35q10.200012,35 15.700012,35l5.5,0l-0.200012,1.5l-0.299988,1.5l-0.5,2q-0.5,2 -1.5,4.5q-1,2.5 -4,6q-3,3.5 -8.700012,8.299988q-5.799988,4.700012 -16.799988,8.700012q-11,4 -27.5,4.5q-16.5,0.5 -23,-0.5q-6.5,-1 -16.5,-5.5q-10,-4.5 -16.200012,-10.799988q-6.299988,-6.200012 -8.299988,-12.200012l-2,-6l-0.299988,-0.200012l-0.200012,-0.299988l0.200012,-0.299988l0.299988,-0.200012l4.5,-1q4.5,-1 17,-37q12.5,-36 12.799988,-36l0.200012,0l0.200012,0q0.299988,0 0.599976,-1.5l0.200012,-1.5l1.5,0.200012l1.5,0.299988l0.200012,0.299988l0.299988,0.200012l0.299988,-0.200012l0.200012,-0.299988l0.5,-0.299988l0.5,-0.200012l0,-0.5l0,-0.5l0,-0.200012l0,-0.299988l0.5,-0.5q0.5,-0.5 1,-0.799988z"/>
   <path id="svg_21" fill="#F7F7F7" fill-rule="evenodd" stroke="#F7F7F7" stroke-width="0.5px" d="m230.82962,533.570374l0.300003,-0.200012l0.5,1l0.5,1l0.5,1l0.5,1l0.5,1l0.5,1l9.5,20q9.5,20 9.800003,20l0.199997,0l0.200012,1q0.299988,1 0.599976,1l0.200012,0l0.200012,1l0.299988,1l0.299988,0.200012l0.200012,0.299988l12.000015,25q12,25 22.5,47q10.5,22 33.299988,69.700012q22.700012,47.799988 23.200012,49.299988l0.5,1.5l0.5,1l0.5,1l0.5,1l0.5,1l0.299988,0l0.200012,0l16.799988,36q16.700012,36 17.200012,37l0.5,1l0.5,2l0.5,2l0,2l0,2l-0.5,-1l-0.5,-1l-0.299988,-0.200012l-0.200012,-0.299988l-0.200012,-0.299988l-0.299988,-0.200012l-0.5,-1.5l-0.5,-1.5l-0.5,-1l-0.5,-1l-0.5,-1q-0.5,-1 -57.5,-115.5q-57,-114.5 -77.000015,-155l-20,-40.5l-0.5,-1l-0.5,-1l0,-1l0,-1l0.300003,-0.200012l0.199997,-0.299988l0.199997,-0.299988l0.300003,-0.200012l0.300003,-0.200012l0.199997,-0.299988l1,-0.5l1,-0.5l0.199997,-0.299988l0.300003,-0.200012l0.300003,-0.200012l0.199997,-0.299988l0.199997,-0.299988l0.300003,-0.200012l0.300003,-0.200012l0.199997,-0.299988l0.199997,-0.299988z"/>
   <path id="svg_20" fill="#050505" fill-rule="evenodd" stroke="#050505" stroke-width="0.5px" d="m255.829636,577.370361l0.300003,-1l0.299988,0.200012l0.200012,0.299988l1,0.5l1,0.5l1,0l1,0l1,0l1,0l1,0.299988l1,0.200012l22,42.200012q22,42.299988 24.799988,48q2.700012,5.799988 26.200012,51.299988q23.5,45.5 23.799988,46.5l0.200012,1l-1.5,0q-1.5,0 -1.700012,1l-0.299988,1l-0.5,1l-0.5,1l-0.299988,0.200012l-0.200012,0.299988l-0.200012,0.299988l-0.299988,0.200012l-0.299988,0.200012l-0.200012,0.299988l-0.200012,0.299988l-0.299988,0.200012l-0.299988,0.200012l-0.200012,0.299988l-1,0.5l-1,0.5l0.200012,0.299988l0.299988,0.200012l0.299988,0.200012l0.200012,0.299988l-0.200012,0.299988l-0.299988,0.200012l-0.5,1l-0.5,1l-0.299988,0.200012l-0.200012,0.299988l-0.200012,0.299988l-0.299988,0.200012l-0.299988,0.200012l-0.200012,0.299988l-0.5,0.299988l-0.5,0.200012l-0.200012,0l-0.299988,0l-0.5,-1l-0.5,-1l-0.5,-1l-0.5,-1l-0.5,-1.5q-0.5,-1.5 -23.200012,-49.299988q-22.799988,-47.700012 -33.299988,-69.700012q-10.5,-22 -22.5,-47l-12.000015,-25l-0.200012,-0.299988l-0.299988,-0.200012l-0.299988,-1l-0.200012,-1l-0.200012,-0.5q-0.299988,-0.5 -0.599976,-1l-0.200012,-0.5l0,-0.200012q0,-0.299988 1,-0.599976l1,-0.200012l0.200012,-1zm0,2.200012q0.300003,-0.200012 0.599991,0q0.200012,0.299988 -0.299988,0.299988q-0.500015,0 -0.300003,-0.299988z"/>
  </g>
 </g>
</svg>